<mxfile host="app.diagrams.net" modified="2021-10-11T06:55:04.161Z" agent="5.0 (Windows NT 10.0; Win64; x64) AppleWebKit/537.36 (KHTML, like Gecko) Chrome/94.0.4606.71 Safari/537.36" etag="VdXOcF_UO7LDjM9d7Dii" version="15.1.0" type="github">
  <diagram id="3hNeAH97agFv0mtRqx9-" name="第 1 页">
    <mxGraphModel dx="1038" dy="588" grid="1" gridSize="10" guides="1" tooltips="1" connect="1" arrows="1" fold="1" page="1" pageScale="1" pageWidth="827" pageHeight="1169" math="0" shadow="0">
      <root>
        <mxCell id="0" />
        <mxCell id="1" parent="0" />
        <mxCell id="IGMwV5CBiYEN7xsxbK0x-12" value="登录" style="edgeStyle=orthogonalEdgeStyle;rounded=0;orthogonalLoop=1;jettySize=auto;html=1;" edge="1" parent="1" source="IGMwV5CBiYEN7xsxbK0x-1">
          <mxGeometry relative="1" as="geometry">
            <mxPoint x="320" y="623" as="targetPoint" />
            <Array as="points">
              <mxPoint x="170" y="623" />
              <mxPoint x="170" y="623" />
            </Array>
          </mxGeometry>
        </mxCell>
        <mxCell id="IGMwV5CBiYEN7xsxbK0x-38" value="获取数据" style="edgeStyle=orthogonalEdgeStyle;rounded=0;orthogonalLoop=1;jettySize=auto;html=1;entryX=0;entryY=0.5;entryDx=0;entryDy=0;" edge="1" parent="1" source="IGMwV5CBiYEN7xsxbK0x-1" target="IGMwV5CBiYEN7xsxbK0x-17">
          <mxGeometry relative="1" as="geometry" />
        </mxCell>
        <mxCell id="IGMwV5CBiYEN7xsxbK0x-1" value="" style="aspect=fixed;perimeter=ellipsePerimeter;html=1;align=center;shadow=0;dashed=0;spacingTop=3;image;image=img/lib/active_directory/user_accounts.svg;" vertex="1" parent="1">
          <mxGeometry x="70" y="598.5" width="50" height="48.5" as="geometry" />
        </mxCell>
        <mxCell id="IGMwV5CBiYEN7xsxbK0x-3" value="Web" style="aspect=fixed;perimeter=ellipsePerimeter;html=1;align=center;shadow=0;dashed=0;spacingTop=3;image;image=img/lib/active_directory/web_server.svg;" vertex="1" parent="1">
          <mxGeometry x="720" y="597" width="40" height="50" as="geometry" />
        </mxCell>
        <mxCell id="IGMwV5CBiYEN7xsxbK0x-4" value="" style="swimlane;startSize=0;dashed=1;" vertex="1" parent="1">
          <mxGeometry x="200" y="570" width="440" height="650" as="geometry" />
        </mxCell>
        <mxCell id="IGMwV5CBiYEN7xsxbK0x-2" value="jqdataserver" style="aspect=fixed;perimeter=ellipsePerimeter;html=1;align=center;shadow=0;dashed=0;spacingTop=3;image;image=img/lib/active_directory/generic_server.svg;" vertex="1" parent="IGMwV5CBiYEN7xsxbK0x-4">
          <mxGeometry x="206" y="15" width="28.000000000000004" height="50" as="geometry" />
        </mxCell>
        <mxCell id="IGMwV5CBiYEN7xsxbK0x-34" value="转换权限为二进制 bit 位" style="edgeStyle=orthogonalEdgeStyle;rounded=0;orthogonalLoop=1;jettySize=auto;html=1;entryX=0.5;entryY=0;entryDx=0;entryDy=0;" edge="1" parent="IGMwV5CBiYEN7xsxbK0x-4" source="IGMwV5CBiYEN7xsxbK0x-9" target="IGMwV5CBiYEN7xsxbK0x-16">
          <mxGeometry relative="1" as="geometry" />
        </mxCell>
        <mxCell id="IGMwV5CBiYEN7xsxbK0x-9" value="&lt;div&gt;{&lt;/div&gt;&lt;div&gt;&amp;nbsp; &amp;nbsp; &quot;userId&quot;: &quot;0&quot;,&lt;/div&gt;&lt;div&gt;&amp;nbsp; &amp;nbsp; &quot;dataCategoryList&quot;: &quot;stock|finance&quot;,&lt;/div&gt;&lt;div&gt;&amp;nbsp; &amp;nbsp; &quot;dateRange&quot;: &quot;*&quot;,&lt;/div&gt;&lt;div&gt;&amp;nbsp; &amp;nbsp; &quot;queryCountLimit&quot;: &quot;200000000&quot;,&lt;/div&gt;&lt;div&gt;&amp;nbsp; &amp;nbsp; &quot;type&quot;: &quot;1&quot;,&lt;/div&gt;&lt;div&gt;&amp;nbsp; &amp;nbsp; &quot;linkNum&quot;: &quot;3&quot;&lt;/div&gt;&lt;div&gt;}&lt;/div&gt;" style="shape=note;strokeWidth=2;fontSize=14;size=20;whiteSpace=wrap;html=1;fillColor=#fff2cc;strokeColor=#d6b656;fontColor=#666600;align=left;" vertex="1" parent="IGMwV5CBiYEN7xsxbK0x-4">
          <mxGeometry x="80" y="109" width="260" height="145" as="geometry" />
        </mxCell>
        <mxCell id="IGMwV5CBiYEN7xsxbK0x-16" value="&lt;div style=&quot;text-align: left&quot;&gt;&lt;span&gt;stock: 000001&lt;/span&gt;&lt;/div&gt;&lt;div style=&quot;text-align: left&quot;&gt;&lt;span&gt;finance:000010&lt;/span&gt;&lt;/div&gt;&lt;div style=&quot;text-align: left&quot;&gt;......&lt;/div&gt;" style="rounded=0;whiteSpace=wrap;html=1;" vertex="1" parent="IGMwV5CBiYEN7xsxbK0x-4">
          <mxGeometry x="150" y="300" width="120" height="60" as="geometry" />
        </mxCell>
        <mxCell id="IGMwV5CBiYEN7xsxbK0x-20" style="edgeStyle=orthogonalEdgeStyle;rounded=0;orthogonalLoop=1;jettySize=auto;html=1;entryX=0;entryY=0.5;entryDx=0;entryDy=0;" edge="1" parent="IGMwV5CBiYEN7xsxbK0x-4" source="IGMwV5CBiYEN7xsxbK0x-17" target="IGMwV5CBiYEN7xsxbK0x-19">
          <mxGeometry relative="1" as="geometry" />
        </mxCell>
        <mxCell id="IGMwV5CBiYEN7xsxbK0x-17" value="判断数据类型" style="rounded=0;whiteSpace=wrap;html=1;" vertex="1" parent="IGMwV5CBiYEN7xsxbK0x-4">
          <mxGeometry x="30" y="395" width="80" height="30" as="geometry" />
        </mxCell>
        <mxCell id="IGMwV5CBiYEN7xsxbK0x-18" value="判断权限" style="rounded=0;whiteSpace=wrap;html=1;" vertex="1" parent="IGMwV5CBiYEN7xsxbK0x-4">
          <mxGeometry x="320" y="395" width="80" height="30" as="geometry" />
        </mxCell>
        <mxCell id="IGMwV5CBiYEN7xsxbK0x-21" value="" style="edgeStyle=orthogonalEdgeStyle;rounded=0;orthogonalLoop=1;jettySize=auto;html=1;" edge="1" parent="IGMwV5CBiYEN7xsxbK0x-4" source="IGMwV5CBiYEN7xsxbK0x-19" target="IGMwV5CBiYEN7xsxbK0x-18">
          <mxGeometry relative="1" as="geometry" />
        </mxCell>
        <mxCell id="IGMwV5CBiYEN7xsxbK0x-19" value="“与”运算" style="rhombus;whiteSpace=wrap;html=1;" vertex="1" parent="IGMwV5CBiYEN7xsxbK0x-4">
          <mxGeometry x="170" y="380" width="80" height="60" as="geometry" />
        </mxCell>
        <mxCell id="IGMwV5CBiYEN7xsxbK0x-22" value="" style="endArrow=classic;html=1;exitX=0.5;exitY=1;exitDx=0;exitDy=0;entryX=0.5;entryY=0;entryDx=0;entryDy=0;" edge="1" parent="IGMwV5CBiYEN7xsxbK0x-4" source="IGMwV5CBiYEN7xsxbK0x-16" target="IGMwV5CBiYEN7xsxbK0x-19">
          <mxGeometry width="50" height="50" relative="1" as="geometry">
            <mxPoint x="210" y="350" as="sourcePoint" />
            <mxPoint x="160" y="400" as="targetPoint" />
          </mxGeometry>
        </mxCell>
        <mxCell id="IGMwV5CBiYEN7xsxbK0x-27" value="无权限" style="edgeStyle=orthogonalEdgeStyle;rounded=0;orthogonalLoop=1;jettySize=auto;html=1;" edge="1" parent="IGMwV5CBiYEN7xsxbK0x-4" source="IGMwV5CBiYEN7xsxbK0x-24" target="IGMwV5CBiYEN7xsxbK0x-26">
          <mxGeometry relative="1" as="geometry" />
        </mxCell>
        <mxCell id="IGMwV5CBiYEN7xsxbK0x-36" value="有权限" style="edgeStyle=orthogonalEdgeStyle;rounded=0;orthogonalLoop=1;jettySize=auto;html=1;entryX=0.5;entryY=0;entryDx=0;entryDy=0;entryPerimeter=0;" edge="1" parent="IGMwV5CBiYEN7xsxbK0x-4" source="IGMwV5CBiYEN7xsxbK0x-24" target="IGMwV5CBiYEN7xsxbK0x-35">
          <mxGeometry relative="1" as="geometry" />
        </mxCell>
        <mxCell id="IGMwV5CBiYEN7xsxbK0x-24" value="是否有权限" style="rhombus;whiteSpace=wrap;html=1;" vertex="1" parent="IGMwV5CBiYEN7xsxbK0x-4">
          <mxGeometry x="160" y="470" width="100" height="80" as="geometry" />
        </mxCell>
        <mxCell id="IGMwV5CBiYEN7xsxbK0x-26" value="返回值" style="rounded=0;whiteSpace=wrap;html=1;" vertex="1" parent="IGMwV5CBiYEN7xsxbK0x-4">
          <mxGeometry x="30" y="495" width="60" height="30" as="geometry" />
        </mxCell>
        <mxCell id="IGMwV5CBiYEN7xsxbK0x-33" value="" style="curved=1;endArrow=classic;html=1;exitX=0.5;exitY=1;exitDx=0;exitDy=0;entryX=1;entryY=0.5;entryDx=0;entryDy=0;" edge="1" parent="IGMwV5CBiYEN7xsxbK0x-4" source="IGMwV5CBiYEN7xsxbK0x-18" target="IGMwV5CBiYEN7xsxbK0x-24">
          <mxGeometry width="50" height="50" relative="1" as="geometry">
            <mxPoint x="360" y="460" as="sourcePoint" />
            <mxPoint x="310" y="510" as="targetPoint" />
            <Array as="points">
              <mxPoint x="350" y="460" />
              <mxPoint x="330" y="510" />
            </Array>
          </mxGeometry>
        </mxCell>
        <mxCell id="IGMwV5CBiYEN7xsxbK0x-37" style="edgeStyle=orthogonalEdgeStyle;rounded=0;orthogonalLoop=1;jettySize=auto;html=1;entryX=0.5;entryY=1;entryDx=0;entryDy=0;" edge="1" parent="IGMwV5CBiYEN7xsxbK0x-4" source="IGMwV5CBiYEN7xsxbK0x-35" target="IGMwV5CBiYEN7xsxbK0x-26">
          <mxGeometry relative="1" as="geometry" />
        </mxCell>
        <mxCell id="IGMwV5CBiYEN7xsxbK0x-35" value="获取数据" style="html=1;outlineConnect=0;whiteSpace=wrap;fillColor=#ffff99;shape=mxgraph.archimate3.application;appType=proc;archiType=rounded;" vertex="1" parent="IGMwV5CBiYEN7xsxbK0x-4">
          <mxGeometry x="155" y="599" width="110" height="30" as="geometry" />
        </mxCell>
        <mxCell id="IGMwV5CBiYEN7xsxbK0x-10" value="" style="endArrow=classic;html=1;exitX=0;exitY=0.75;exitDx=0;exitDy=0;" edge="1" parent="1" source="IGMwV5CBiYEN7xsxbK0x-3" target="IGMwV5CBiYEN7xsxbK0x-9">
          <mxGeometry width="50" height="50" relative="1" as="geometry">
            <mxPoint x="660" y="660" as="sourcePoint" />
            <mxPoint x="610" y="710" as="targetPoint" />
          </mxGeometry>
        </mxCell>
        <mxCell id="IGMwV5CBiYEN7xsxbK0x-11" value="返回权限信息" style="edgeLabel;html=1;align=center;verticalAlign=middle;resizable=0;points=[];" vertex="1" connectable="0" parent="IGMwV5CBiYEN7xsxbK0x-10">
          <mxGeometry x="0.3789" y="-1" relative="1" as="geometry">
            <mxPoint x="-14" y="-1" as="offset" />
          </mxGeometry>
        </mxCell>
        <mxCell id="IGMwV5CBiYEN7xsxbK0x-14" style="edgeStyle=orthogonalEdgeStyle;rounded=0;orthogonalLoop=1;jettySize=auto;html=1;entryX=0;entryY=0.5;entryDx=0;entryDy=0;" edge="1" parent="1" target="IGMwV5CBiYEN7xsxbK0x-3">
          <mxGeometry relative="1" as="geometry">
            <mxPoint x="540" y="622" as="sourcePoint" />
          </mxGeometry>
        </mxCell>
        <mxCell id="IGMwV5CBiYEN7xsxbK0x-15" value="登录" style="edgeLabel;html=1;align=center;verticalAlign=middle;resizable=0;points=[];" vertex="1" connectable="0" parent="IGMwV5CBiYEN7xsxbK0x-14">
          <mxGeometry x="-0.18" y="-1" relative="1" as="geometry">
            <mxPoint as="offset" />
          </mxGeometry>
        </mxCell>
        <mxCell id="IGMwV5CBiYEN7xsxbK0x-39" style="edgeStyle=orthogonalEdgeStyle;rounded=0;orthogonalLoop=1;jettySize=auto;html=1;entryX=0.5;entryY=1;entryDx=0;entryDy=0;" edge="1" parent="1" source="IGMwV5CBiYEN7xsxbK0x-26" target="IGMwV5CBiYEN7xsxbK0x-1">
          <mxGeometry relative="1" as="geometry" />
        </mxCell>
      </root>
    </mxGraphModel>
  </diagram>
</mxfile>
